<mxfile host="app.diagrams.net" modified="2020-11-10T04:14:43.293Z" agent="5.0 (Windows NT 10.0; Win64; x64) AppleWebKit/537.36 (KHTML, like Gecko) Chrome/86.0.4240.183 Safari/537.36" etag="YeE-IEYRXMlJYRB4y-vC" version="13.9.2" type="github">
  <diagram id="8NYAcWZ163hUoI6U56aE" name="Page-1">
    <mxGraphModel dx="868" dy="450" grid="1" gridSize="10" guides="1" tooltips="1" connect="1" arrows="1" fold="1" page="1" pageScale="1" pageWidth="827" pageHeight="1169" math="0" shadow="0">
      <root>
        <mxCell id="0" />
        <mxCell id="1" parent="0" />
        <mxCell id="qzt5akClQMJJZFVs8J1I-5" style="edgeStyle=orthogonalEdgeStyle;rounded=0;orthogonalLoop=1;jettySize=auto;html=1;entryX=0;entryY=0.5;entryDx=0;entryDy=0;" edge="1" parent="1" source="qzt5akClQMJJZFVs8J1I-1" target="qzt5akClQMJJZFVs8J1I-3">
          <mxGeometry relative="1" as="geometry" />
        </mxCell>
        <mxCell id="qzt5akClQMJJZFVs8J1I-14" value="" style="edgeStyle=orthogonalEdgeStyle;rounded=0;orthogonalLoop=1;jettySize=auto;html=1;" edge="1" parent="1" source="qzt5akClQMJJZFVs8J1I-1" target="qzt5akClQMJJZFVs8J1I-2">
          <mxGeometry relative="1" as="geometry" />
        </mxCell>
        <mxCell id="qzt5akClQMJJZFVs8J1I-1" value="" style="rounded=0;whiteSpace=wrap;html=1;" vertex="1" parent="1">
          <mxGeometry x="30" y="140" width="110" height="20" as="geometry" />
        </mxCell>
        <mxCell id="qzt5akClQMJJZFVs8J1I-2" value="&lt;br&gt;&lt;br&gt;&lt;br&gt;" style="rounded=0;whiteSpace=wrap;html=1;" vertex="1" parent="1">
          <mxGeometry x="30" y="160" width="110" height="90" as="geometry" />
        </mxCell>
        <mxCell id="qzt5akClQMJJZFVs8J1I-3" value="" style="rounded=0;whiteSpace=wrap;html=1;" vertex="1" parent="1">
          <mxGeometry x="260" y="140" width="170" height="20" as="geometry" />
        </mxCell>
        <mxCell id="qzt5akClQMJJZFVs8J1I-4" value="" style="rounded=0;whiteSpace=wrap;html=1;" vertex="1" parent="1">
          <mxGeometry x="260" y="160" width="170" height="190" as="geometry" />
        </mxCell>
        <mxCell id="qzt5akClQMJJZFVs8J1I-6" value="&lt;b&gt;MenuComponent&lt;/b&gt;" style="rounded=0;whiteSpace=wrap;html=1;" vertex="1" parent="1">
          <mxGeometry x="140" y="370" width="150" height="20" as="geometry" />
        </mxCell>
        <mxCell id="qzt5akClQMJJZFVs8J1I-7" value="" style="rounded=0;whiteSpace=wrap;html=1;" vertex="1" parent="1">
          <mxGeometry x="140" y="390" width="150" height="90" as="geometry" />
        </mxCell>
        <mxCell id="qzt5akClQMJJZFVs8J1I-10" style="edgeStyle=orthogonalEdgeStyle;rounded=0;orthogonalLoop=1;jettySize=auto;html=1;entryX=1;entryY=0.5;entryDx=0;entryDy=0;" edge="1" parent="1" source="qzt5akClQMJJZFVs8J1I-8" target="qzt5akClQMJJZFVs8J1I-3">
          <mxGeometry relative="1" as="geometry">
            <mxPoint x="630" y="130" as="targetPoint" />
            <Array as="points">
              <mxPoint x="620" y="380" />
              <mxPoint x="620" y="150" />
            </Array>
          </mxGeometry>
        </mxCell>
        <mxCell id="qzt5akClQMJJZFVs8J1I-8" value="" style="rounded=0;whiteSpace=wrap;html=1;" vertex="1" parent="1">
          <mxGeometry x="380" y="370" width="160" height="20" as="geometry" />
        </mxCell>
        <mxCell id="qzt5akClQMJJZFVs8J1I-9" value="" style="rounded=0;whiteSpace=wrap;html=1;" vertex="1" parent="1">
          <mxGeometry x="380" y="390" width="160" height="190" as="geometry" />
        </mxCell>
        <mxCell id="qzt5akClQMJJZFVs8J1I-11" value="&lt;b&gt;Waitress&lt;/b&gt;" style="text;html=1;strokeColor=none;fillColor=none;align=center;verticalAlign=middle;whiteSpace=wrap;rounded=0;" vertex="1" parent="1">
          <mxGeometry x="50" y="140" width="40" height="20" as="geometry" />
        </mxCell>
        <mxCell id="qzt5akClQMJJZFVs8J1I-12" value="&lt;b&gt;MenuComponent&lt;/b&gt;" style="text;html=1;strokeColor=none;fillColor=none;align=center;verticalAlign=middle;whiteSpace=wrap;rounded=0;" vertex="1" parent="1">
          <mxGeometry x="310" y="140" width="40" height="20" as="geometry" />
        </mxCell>
        <mxCell id="qzt5akClQMJJZFVs8J1I-16" value="" style="endArrow=none;dashed=1;html=1;entryX=0.25;entryY=0;entryDx=0;entryDy=0;exitX=0;exitY=0.5;exitDx=0;exitDy=0;" edge="1" parent="1" source="qzt5akClQMJJZFVs8J1I-17" target="qzt5akClQMJJZFVs8J1I-6">
          <mxGeometry width="50" height="50" relative="1" as="geometry">
            <mxPoint x="240" y="340" as="sourcePoint" />
            <mxPoint x="330" y="260" as="targetPoint" />
          </mxGeometry>
        </mxCell>
        <mxCell id="qzt5akClQMJJZFVs8J1I-17" value="" style="triangle;whiteSpace=wrap;html=1;direction=east;" vertex="1" parent="1">
          <mxGeometry x="240" y="300" width="15" height="15" as="geometry" />
        </mxCell>
        <mxCell id="qzt5akClQMJJZFVs8J1I-18" value="" style="triangle;whiteSpace=wrap;html=1;direction=west;" vertex="1" parent="1">
          <mxGeometry x="430" y="300" width="15" height="15" as="geometry" />
        </mxCell>
        <mxCell id="qzt5akClQMJJZFVs8J1I-19" value="" style="endArrow=none;dashed=1;html=1;entryX=0;entryY=0.75;entryDx=0;entryDy=0;exitX=0.617;exitY=-0.1;exitDx=0;exitDy=0;exitPerimeter=0;" edge="1" parent="1" source="qzt5akClQMJJZFVs8J1I-8" target="qzt5akClQMJJZFVs8J1I-18">
          <mxGeometry width="50" height="50" relative="1" as="geometry">
            <mxPoint x="280" y="310" as="sourcePoint" />
            <mxPoint x="330" y="260" as="targetPoint" />
          </mxGeometry>
        </mxCell>
        <mxCell id="qzt5akClQMJJZFVs8J1I-20" value="Print()" style="text;html=1;strokeColor=none;fillColor=none;align=center;verticalAlign=middle;whiteSpace=wrap;rounded=0;" vertex="1" parent="1">
          <mxGeometry x="270" y="250" width="40" height="20" as="geometry" />
        </mxCell>
        <mxCell id="qzt5akClQMJJZFVs8J1I-21" value="getNombre()" style="text;html=1;strokeColor=none;fillColor=none;align=center;verticalAlign=middle;whiteSpace=wrap;rounded=0;" vertex="1" parent="1">
          <mxGeometry x="280" y="170" width="50" height="20" as="geometry" />
        </mxCell>
        <mxCell id="qzt5akClQMJJZFVs8J1I-22" value="getDescripcion()" style="text;html=1;strokeColor=none;fillColor=none;align=center;verticalAlign=middle;whiteSpace=wrap;rounded=0;" vertex="1" parent="1">
          <mxGeometry x="295" y="195" width="40" height="20" as="geometry" />
        </mxCell>
        <mxCell id="qzt5akClQMJJZFVs8J1I-23" value="getPrecio" style="text;html=1;strokeColor=none;fillColor=none;align=center;verticalAlign=middle;whiteSpace=wrap;rounded=0;" vertex="1" parent="1">
          <mxGeometry x="280" y="220" width="40" height="20" as="geometry" />
        </mxCell>
        <mxCell id="qzt5akClQMJJZFVs8J1I-24" value="add(Componet)" style="text;html=1;strokeColor=none;fillColor=none;align=center;verticalAlign=middle;whiteSpace=wrap;rounded=0;" vertex="1" parent="1">
          <mxGeometry x="295" y="277.5" width="40" height="20" as="geometry" />
        </mxCell>
        <mxCell id="qzt5akClQMJJZFVs8J1I-25" value="&lt;span&gt;remove(Componet)&lt;/span&gt;" style="text;html=1;strokeColor=none;fillColor=none;align=center;verticalAlign=middle;whiteSpace=wrap;rounded=0;" vertex="1" parent="1">
          <mxGeometry x="310" y="297.5" width="40" height="20" as="geometry" />
        </mxCell>
        <mxCell id="qzt5akClQMJJZFVs8J1I-26" value="&lt;span&gt;Print()&lt;/span&gt;" style="text;html=1;strokeColor=none;fillColor=none;align=center;verticalAlign=middle;whiteSpace=wrap;rounded=0;" vertex="1" parent="1">
          <mxGeometry x="40" y="170" width="40" height="20" as="geometry" />
        </mxCell>
        <mxCell id="qzt5akClQMJJZFVs8J1I-27" value="getChild(int)" style="text;html=1;strokeColor=none;fillColor=none;align=center;verticalAlign=middle;whiteSpace=wrap;rounded=0;" vertex="1" parent="1">
          <mxGeometry x="285" y="317.5" width="40" height="20" as="geometry" />
        </mxCell>
        <mxCell id="qzt5akClQMJJZFVs8J1I-28" value="" style="rounded=0;whiteSpace=wrap;html=1;" vertex="1" parent="1">
          <mxGeometry x="380" y="390" width="160" height="20" as="geometry" />
        </mxCell>
        <mxCell id="qzt5akClQMJJZFVs8J1I-29" value="&lt;b&gt;Menu&lt;/b&gt;" style="text;html=1;strokeColor=none;fillColor=none;align=center;verticalAlign=middle;whiteSpace=wrap;rounded=0;" vertex="1" parent="1">
          <mxGeometry x="440" y="370" width="40" height="20" as="geometry" />
        </mxCell>
        <mxCell id="qzt5akClQMJJZFVs8J1I-30" value="menuComponets" style="text;html=1;strokeColor=none;fillColor=none;align=center;verticalAlign=middle;whiteSpace=wrap;rounded=0;" vertex="1" parent="1">
          <mxGeometry x="440" y="390" width="40" height="20" as="geometry" />
        </mxCell>
        <mxCell id="qzt5akClQMJJZFVs8J1I-32" value="&lt;span style=&quot;color: rgb(0, 0, 0); font-family: helvetica; font-size: 12px; font-style: normal; font-weight: 400; letter-spacing: normal; text-align: center; text-indent: 0px; text-transform: none; word-spacing: 0px; background-color: rgb(248, 249, 250); display: inline; float: none;&quot;&gt;getNombre()&lt;/span&gt;" style="text;whiteSpace=wrap;html=1;" vertex="1" parent="1">
          <mxGeometry x="382.5" y="415" width="90" height="30" as="geometry" />
        </mxCell>
        <mxCell id="qzt5akClQMJJZFVs8J1I-33" value="&lt;span style=&quot;color: rgb(0, 0, 0); font-family: helvetica; font-size: 12px; font-style: normal; font-weight: 400; letter-spacing: normal; text-align: center; text-indent: 0px; text-transform: none; word-spacing: 0px; background-color: rgb(248, 249, 250); display: inline; float: none;&quot;&gt;getDescripcion()&lt;/span&gt;" style="text;whiteSpace=wrap;html=1;" vertex="1" parent="1">
          <mxGeometry x="382.5" y="440" width="110" height="30" as="geometry" />
        </mxCell>
        <mxCell id="qzt5akClQMJJZFVs8J1I-34" value="&lt;span style=&quot;color: rgb(0, 0, 0); font-family: helvetica; font-size: 12px; font-style: normal; font-weight: 400; letter-spacing: normal; text-align: center; text-indent: 0px; text-transform: none; word-spacing: 0px; background-color: rgb(248, 249, 250); display: inline; float: none;&quot;&gt;getPrecio&lt;/span&gt;" style="text;whiteSpace=wrap;html=1;" vertex="1" parent="1">
          <mxGeometry x="382.5" y="460" width="80" height="30" as="geometry" />
        </mxCell>
        <mxCell id="qzt5akClQMJJZFVs8J1I-35" value="&lt;span style=&quot;color: rgb(0, 0, 0); font-family: helvetica; font-size: 12px; font-style: normal; font-weight: 400; letter-spacing: normal; text-align: center; text-indent: 0px; text-transform: none; word-spacing: 0px; background-color: rgb(248, 249, 250); display: inline; float: none;&quot;&gt;Print()&lt;/span&gt;" style="text;whiteSpace=wrap;html=1;" vertex="1" parent="1">
          <mxGeometry x="384" y="480" width="60" height="30" as="geometry" />
        </mxCell>
        <mxCell id="qzt5akClQMJJZFVs8J1I-36" value="&lt;span style=&quot;color: rgb(0, 0, 0); font-family: helvetica; font-size: 12px; font-style: normal; font-weight: 400; letter-spacing: normal; text-align: center; text-indent: 0px; text-transform: none; word-spacing: 0px; background-color: rgb(248, 249, 250); display: inline; float: none;&quot;&gt;add(Componet)&lt;/span&gt;" style="text;whiteSpace=wrap;html=1;" vertex="1" parent="1">
          <mxGeometry x="384" y="500" width="110" height="30" as="geometry" />
        </mxCell>
        <mxCell id="qzt5akClQMJJZFVs8J1I-37" value="&lt;span style=&quot;color: rgb(0, 0, 0); font-family: helvetica; font-size: 12px; font-style: normal; font-weight: 400; letter-spacing: normal; text-align: center; text-indent: 0px; text-transform: none; word-spacing: 0px; background-color: rgb(248, 249, 250); display: inline; float: none;&quot;&gt;remove(Componet)&lt;/span&gt;" style="text;whiteSpace=wrap;html=1;" vertex="1" parent="1">
          <mxGeometry x="382.5" y="520" width="130" height="30" as="geometry" />
        </mxCell>
        <mxCell id="qzt5akClQMJJZFVs8J1I-38" value="&lt;span style=&quot;color: rgb(0, 0, 0); font-family: helvetica; font-size: 12px; font-style: normal; font-weight: 400; letter-spacing: normal; text-align: center; text-indent: 0px; text-transform: none; word-spacing: 0px; background-color: rgb(248, 249, 250); display: inline; float: none;&quot;&gt;getChild(int)&lt;/span&gt;" style="text;whiteSpace=wrap;html=1;" vertex="1" parent="1">
          <mxGeometry x="382.5" y="540" width="90" height="30" as="geometry" />
        </mxCell>
        <mxCell id="qzt5akClQMJJZFVs8J1I-41" value="&lt;span style=&quot;color: rgb(0, 0, 0); font-family: helvetica; font-size: 12px; font-style: normal; font-weight: 400; letter-spacing: normal; text-align: center; text-indent: 0px; text-transform: none; word-spacing: 0px; background-color: rgb(248, 249, 250); display: inline; float: none;&quot;&gt;getNombre()&lt;/span&gt;" style="text;whiteSpace=wrap;html=1;" vertex="1" parent="1">
          <mxGeometry x="150" y="390" width="90" height="30" as="geometry" />
        </mxCell>
        <mxCell id="qzt5akClQMJJZFVs8J1I-42" value="&lt;span style=&quot;color: rgb(0, 0, 0); font-family: helvetica; font-size: 12px; font-style: normal; font-weight: 400; letter-spacing: normal; text-align: center; text-indent: 0px; text-transform: none; word-spacing: 0px; background-color: rgb(248, 249, 250); display: inline; float: none;&quot;&gt;getDescripcion()&lt;/span&gt;" style="text;whiteSpace=wrap;html=1;" vertex="1" parent="1">
          <mxGeometry x="150" y="410" width="110" height="30" as="geometry" />
        </mxCell>
        <mxCell id="qzt5akClQMJJZFVs8J1I-43" value="&lt;span style=&quot;color: rgb(0, 0, 0); font-family: helvetica; font-size: 12px; font-style: normal; font-weight: 400; letter-spacing: normal; text-align: center; text-indent: 0px; text-transform: none; word-spacing: 0px; background-color: rgb(248, 249, 250); display: inline; float: none;&quot;&gt;getPrecio&lt;/span&gt;" style="text;whiteSpace=wrap;html=1;" vertex="1" parent="1">
          <mxGeometry x="150" y="430" width="80" height="30" as="geometry" />
        </mxCell>
        <mxCell id="qzt5akClQMJJZFVs8J1I-44" value="&lt;span style=&quot;color: rgb(0, 0, 0); font-family: helvetica; font-size: 12px; font-style: normal; font-weight: 400; letter-spacing: normal; text-align: center; text-indent: 0px; text-transform: none; word-spacing: 0px; background-color: rgb(248, 249, 250); display: inline; float: none;&quot;&gt;Print()&lt;/span&gt;" style="text;whiteSpace=wrap;html=1;" vertex="1" parent="1">
          <mxGeometry x="150" y="450" width="60" height="30" as="geometry" />
        </mxCell>
      </root>
    </mxGraphModel>
  </diagram>
</mxfile>
